# xmcd CD database file
#
# Track frame offsets:
#	150
#	26199
#	60219
#	77640
#	105168
#	129976
#	190883
#	216035
#	244803
#
# Disc length: 3536 seconds
#
# Revision: 0
# Processed by: cddbd v1.5.1PL0 Copyright (c) Steve Scherf et al.
# Submitted via: CDex 1.51
#
DISCID=6b0dce09
DTITLE=Tom Waits - In Antwerpen 2004 disc 1
DYEAR=2004
DGENRE=Blues
TTITLE0=Make It Rain
TTITLE1=Don't Go Into That Barn
TTITLE2=Walk Away
TTITLE3=Lost At The Bottom Of The World
TTITLE4=Hoist That Rag
TTITLE5=Sins Of My Father
TTITLE6=(Story Of Johnny Egg) Table Top Joe
TTITLE7=Dead And Lovely
TTITLE8=God's Way On Buisiness
EXTD=YEAR: 2004
EXTT0=
EXTT1=
EXTT2=
EXTT3=
EXTT4=
EXTT5=
EXTT6=
EXTT7=
EXTT8=
PLAYORDER=
